<svg width="1200" height="630" viewBox="0 0 1200 630" xmlns="http://www.w3.org/2000/svg">
  <!-- Background -->
  <defs>
    <linearGradient id="bg" x1="0%" y1="0%" x2="100%" y2="100%">
      <stop offset="0%" style="stop-color:#0f172a;stop-opacity:1" />
      <stop offset="100%" style="stop-color:#1e293b;stop-opacity:1" />
    </linearGradient>
    <linearGradient id="accent" x1="0%" y1="0%" x2="100%" y2="0%">
      <stop offset="0%" style="stop-color:#10b981;stop-opacity:1" />
      <stop offset="100%" style="stop-color:#06b6d4;stop-opacity:1" />
    </linearGradient>
  </defs>
  
  <rect width="1200" height="630" fill="url(#bg)"/>
  
  <!-- Main Content -->
  <g transform="translate(60, 80)">
    <!-- Email Icon -->
    <g transform="translate(50, 50)">
      <rect x="0" y="20" width="120" height="80" rx="8" fill="url(#accent)" opacity="0.2"/>
      <rect x="0" y="20" width="120" height="80" rx="8" fill="none" stroke="url(#accent)" stroke-width="3"/>
      <path d="M10 35 L60 65 L110 35" stroke="url(#accent)" stroke-width="3" fill="none"/>
      <circle cx="140" cy="30" r="8" fill="#ef4444"/>
      <text x="155" y="36" fill="#ef4444" font-family="Arial, sans-serif" font-size="12" font-weight="bold">TEMP</text>
    </g>
    
    <!-- Title -->
    <text x="50" y="200" fill="white" font-family="Arial, sans-serif" font-size="48" font-weight="bold">
      Ultimate Guide to
    </text>
    <text x="50" y="260" fill="url(#accent)" font-family="Arial, sans-serif" font-size="52" font-weight="bold">
      Temporary Email
    </text>
    <text x="50" y="320" fill="white" font-family="Arial, sans-serif" font-size="48" font-weight="bold">
      Services 2024
    </text>
    
    <!-- Subtitle -->
    <text x="50" y="380" fill="#94a3b8" font-family="Arial, sans-serif" font-size="24">
      Protect Your Privacy with Disposable Email Addresses
    </text>
    
    <!-- Features -->
    <g transform="translate(50, 420)">
      <circle cx="0" cy="0" r="4" fill="#10b981"/>
      <text x="15" y="5" fill="#e2e8f0" font-family="Arial, sans-serif" font-size="18">10-Hour Duration</text>
      
      <circle cx="200" cy="0" r="4" fill="#10b981"/>
      <text x="215" y="5" fill="#e2e8f0" font-family="Arial, sans-serif" font-size="18">SSL Encrypted</text>
      
      <circle cx="350" cy="0" r="4" fill="#10b981"/>
      <text x="365" y="5" fill="#e2e8f0" font-family="Arial, sans-serif" font-size="18">Mobile Optimized</text>
    </g>
  </g>
  
  <!-- Right Side Graphics -->
  <g transform="translate(700, 100)">
    <!-- Shield Icon -->
    <path d="M50 0 L100 25 L100 75 C100 100 75 125 50 125 C25 125 0 100 0 75 L0 25 Z" fill="url(#accent)" opacity="0.3"/>
    <path d="M25 60 L45 75 L75 45" stroke="#10b981" stroke-width="4" fill="none"/>
    
    <!-- Email Icons -->
    <g transform="translate(150, 50)">
      <rect x="0" y="0" width="60" height="40" rx="4" fill="#475569" stroke="#64748b" stroke-width="1"/>
      <path d="M5 8 L30 20 L55 8" stroke="#94a3b8" stroke-width="2" fill="none"/>
      
      <rect x="0" y="60" width="60" height="40" rx="4" fill="#475569" stroke="#64748b" stroke-width="1"/>
      <path d="M5 68 L30 80 L55 68" stroke="#94a3b8" stroke-width="2" fill="none"/>
      
      <rect x="0" y="120" width="60" height="40" rx="4" fill="#475569" stroke="#64748b" stroke-width="1"/>
      <path d="M5 128 L30 140 L55 128" stroke="#94a3b8" stroke-width="2" fill="none"/>
    </g>
  </g>
  
  <!-- Bottom Brand -->
  <text x="60" y="580" fill="#64748b" font-family="Arial, sans-serif" font-size="16">
    TempMail.org - Free Temporary Email Service
  </text>
</svg> 